<svg width="22" height="18" viewBox="0 0 22 18" fill="none" xmlns="http://www.w3.org/2000/svg">
<path fill-rule="evenodd" clip-rule="evenodd" d="M5.93047 1C6.61829 1 7.17588 1.51167 7.17588 2.14286V4.42857C7.17588 5.05975 6.61829 5.57143 5.93047 5.57143C5.24265 5.57143 4.68506 5.05975 4.68506 4.42857V2.14286C4.68506 1.51167 5.24265 1 5.93047 1Z" stroke="black" stroke-linecap="round" stroke-linejoin="round"/>
<path d="M20.8753 3.28564H7.17578" stroke="black" stroke-linecap="round" stroke-linejoin="round"/>
<path d="M4.68497 3.28564H0.94873" stroke="black" stroke-linecap="round" stroke-linejoin="round"/>
<path fill-rule="evenodd" clip-rule="evenodd" d="M5.93047 12.4287C6.61829 12.4287 7.17588 12.9404 7.17588 13.5716V15.8573C7.17588 16.4885 6.61829 17.0001 5.93047 17.0001C5.24265 17.0001 4.68506 16.4885 4.68506 15.8573V13.5716C4.68506 12.9404 5.24265 12.4287 5.93047 12.4287Z" stroke="black" stroke-linecap="round" stroke-linejoin="round"/>
<path d="M20.8753 14.7144H7.17578" stroke="black" stroke-linecap="round" stroke-linejoin="round"/>
<path d="M4.68497 14.7144H0.94873" stroke="black" stroke-linecap="round" stroke-linejoin="round"/>
<path fill-rule="evenodd" clip-rule="evenodd" d="M15.8934 6.71436C16.5812 6.71436 17.1388 7.22603 17.1388 7.85721V10.1429C17.1388 10.7741 16.5812 11.2858 15.8934 11.2858C15.2055 11.2858 14.6479 10.7741 14.6479 10.1429V7.85721C14.6479 7.22603 15.2055 6.71436 15.8934 6.71436Z" stroke="black" stroke-linecap="round" stroke-linejoin="round"/>
<path d="M14.6483 9H0.94873" stroke="black" stroke-linecap="round" stroke-linejoin="round"/>
<path d="M20.8754 9H17.1392" stroke="black" stroke-linecap="round" stroke-linejoin="round"/>
</svg>
